<?xml version="1.0" standalone="no"?>
<!DOCTYPE svg PUBLIC "-//W3C//DTD SVG 20010904//EN"
 "http://www.w3.org/TR/2001/REC-SVG-20010904/DTD/svg10.dtd">
<svg version="1.0" xmlns="http://www.w3.org/2000/svg"
 width="620.000000pt" height="620.000000pt" viewBox="0 0 620.000000 620.000000"
 preserveAspectRatio="xMidYMid meet">
<metadata>
Created by potrace 1.11, written by Peter Selinger 2001-2013
</metadata>
<g transform="translate(0.000000,620.000000) scale(0.100000,-0.100000)"
fill="#000000" stroke="none">
<path d="M0 5550 l0 -650 3100 0 3100 0 0 650 0 650 -3100 0 -3100 0 0 -650z"/>
<path d="M902 4062 c-69 -203 -167 -488 -257 -747 -48 -137 -95 -275 -105
-305 -16 -48 -143 -415 -226 -655 -106 -307 -112 -326 -101 -330 7 -3 104 -4
217 -2 l205 2 27 80 c15 44 49 148 75 230 l48 150 377 1 378 1 55 -172 c30
-95 55 -175 55 -178 0 -4 9 -31 21 -62 l20 -55 215 0 c118 1 214 4 214 8 0 4
-36 113 -81 242 -44 129 -85 246 -89 260 -5 14 -58 171 -120 350 -61 179 -120
350 -130 380 -10 30 -63 186 -118 345 -55 160 -116 340 -136 400 -21 61 -41
118 -47 127 -5 10 -9 24 -9 32 0 11 -39 14 -224 15 l-224 1 -40 -118z m313
-542 c26 -80 59 -185 75 -235 15 -49 45 -144 66 -210 21 -66 39 -123 40 -127
1 -5 3 -10 4 -13 1 -3 3 -8 4 -12 1 -5 8 -25 15 -47 9 -25 10 -40 3 -45 -11
-7 -519 -8 -526 -1 -2 3 9 43 24 90 15 47 49 153 75 235 159 507 163 520 171
513 1 -2 24 -69 49 -148z"/>
<path d="M2144 4158 c4 -13 9 -30 11 -38 2 -8 4 -15 5 -15 1 0 3 -7 5 -15 2
-8 65 -195 140 -415 75 -220 145 -425 155 -455 10 -30 91 -269 180 -530 88
-261 175 -518 193 -570 l32 -95 222 -2 222 -2 11 32 c16 44 265 772 300 877
45 135 231 683 237 700 4 8 7 17 8 20 1 3 4 12 7 20 4 8 9 24 11 35 3 11 40
119 81 240 42 120 76 223 76 227 0 11 -447 10 -454 0 -3 -5 -7 -19 -10 -33 -3
-13 -9 -37 -15 -54 -14 -45 -101 -338 -105 -355 -2 -8 -24 -82 -49 -165 -25
-82 -66 -222 -92 -310 -26 -88 -74 -250 -107 -360 -33 -110 -73 -249 -88 -310
-26 -102 -29 -108 -39 -82 -6 16 -11 34 -11 40 0 7 -20 80 -44 162 -24 83
-132 447 -239 810 l-195 660 -227 3 -228 3 7 -23z"/>
<path d="M4259 4168 c-1 -7 -2 -493 -3 -1079 l-1 -1067 218 -1 217 -2 0 449 0
449 440 0 440 0 0 -449 0 -448 215 1 215 1 0 1079 0 1078 -215 1 -215 0 0
-465 0 -465 -440 0 -440 0 0 465 0 465 -215 0 c-165 0 -215 -3 -216 -12z"/>
<path d="M0 650 l0 -650 3100 0 3100 0 0 650 0 650 -3100 0 -3100 0 0 -650z"/>
</g>
</svg>
